<svg xmlns="http://www.w3.org/2000/svg" xmlns:xlink="http://www.w3.org/1999/xlink" width="500" zoomAndPan="magnify" viewBox="0 0 375 374.999991" height="500" preserveAspectRatio="xMidYMid meet" version="1.0"><defs><g/><clipPath id="7e5194ef03"><rect x="0" width="95" y="0" height="29"/></clipPath><clipPath id="062762aed3"><path d="M 0.964844 0.363281 L 25.84375 0.363281 L 25.84375 25.242188 L 0.964844 25.242188 Z M 0.964844 0.363281 " clip-rule="nonzero"/></clipPath><clipPath id="809ebf9fbc"><path d="M 13.40625 0.363281 C 20.273438 0.363281 25.84375 5.933594 25.84375 12.804688 C 25.84375 19.671875 20.273438 25.242188 13.40625 25.242188 C 6.535156 25.242188 0.964844 19.671875 0.964844 12.804688 C 0.964844 5.933594 6.535156 0.363281 13.40625 0.363281 L 13.40625 5.339844 C 9.28125 5.339844 5.941406 8.679688 5.941406 12.804688 C 5.941406 16.925781 9.28125 20.265625 13.40625 20.265625 C 17.527344 20.265625 20.867188 16.925781 20.867188 12.804688 C 20.867188 8.679688 17.527344 5.339844 13.40625 5.339844 Z M 13.40625 0.363281 " clip-rule="nonzero"/></clipPath><clipPath id="77c368fcfe"><path d="M 0.964844 0.363281 L 25.84375 0.363281 L 25.84375 25.242188 L 0.964844 25.242188 Z M 0.964844 0.363281 " clip-rule="nonzero"/></clipPath><clipPath id="c2cafb8dd3"><path d="M 13.40625 0.363281 C 20.273438 0.363281 25.84375 5.933594 25.84375 12.804688 C 25.84375 19.671875 20.273438 25.242188 13.40625 25.242188 C 6.535156 25.242188 0.964844 19.671875 0.964844 12.804688 C 0.964844 5.933594 6.535156 0.363281 13.40625 0.363281 L 13.40625 5.339844 C 9.28125 5.339844 5.941406 8.679688 5.941406 12.804688 C 5.941406 16.925781 9.28125 20.265625 13.40625 20.265625 C 17.527344 20.265625 20.867188 16.925781 20.867188 12.804688 C 20.867188 8.679688 17.527344 5.339844 13.40625 5.339844 Z M 13.40625 0.363281 " clip-rule="nonzero"/></clipPath><clipPath id="70e24f5ef2"><rect x="0" width="26" y="0" height="26"/></clipPath><clipPath id="5c70136ba9"><path d="M 3.589844 0.65625 L 25.921875 0.65625 L 25.921875 25.339844 L 3.589844 25.339844 Z M 3.589844 0.65625 " clip-rule="nonzero"/></clipPath><clipPath id="315649d744"><path d="M 16.515625 0.757812 C 21.636719 2.082031 25.359375 6.496094 25.800781 11.769531 C 26.238281 17.039062 23.300781 22.011719 18.46875 24.164062 C 13.636719 26.316406 7.976562 25.179688 4.347656 21.328125 C 3.40625 20.328125 3.453125 18.753906 4.453125 17.8125 C 5.457031 16.871094 7.03125 16.917969 7.972656 17.917969 C 10.148438 20.230469 13.546875 20.910156 16.441406 19.621094 C 19.339844 18.328125 21.105469 15.34375 20.84375 12.183594 C 20.578125 9.019531 18.34375 6.371094 15.269531 5.578125 C 14.410156 5.355469 13.734375 4.691406 13.496094 3.835938 C 13.257812 2.976562 13.496094 2.058594 14.117188 1.425781 C 14.738281 0.792969 15.652344 0.539062 16.515625 0.757812 Z M 16.515625 0.757812 " clip-rule="nonzero"/></clipPath><clipPath id="671ac895ed"><path d="M 0.589844 0.65625 L 22.921875 0.65625 L 22.921875 25.339844 L 0.589844 25.339844 Z M 0.589844 0.65625 " clip-rule="nonzero"/></clipPath><clipPath id="ee83ca4773"><path d="M 13.515625 0.757812 C 18.636719 2.082031 22.359375 6.496094 22.800781 11.769531 C 23.238281 17.039062 20.300781 22.011719 15.46875 24.164062 C 10.636719 26.316406 4.976562 25.179688 1.347656 21.328125 C 0.40625 20.328125 0.453125 18.753906 1.453125 17.8125 C 2.457031 16.871094 4.03125 16.917969 4.972656 17.917969 C 7.148438 20.230469 10.546875 20.910156 13.441406 19.621094 C 16.339844 18.328125 18.105469 15.34375 17.84375 12.183594 C 17.578125 9.019531 15.34375 6.371094 12.269531 5.578125 C 11.410156 5.355469 10.734375 4.691406 10.496094 3.835938 C 10.257812 2.976562 10.496094 2.058594 11.117188 1.425781 C 11.738281 0.792969 12.652344 0.539062 13.515625 0.757812 Z M 13.515625 0.757812 " clip-rule="nonzero"/></clipPath><clipPath id="0666250717"><rect x="0" width="23" y="0" height="26"/></clipPath><clipPath id="947cd8d589"><rect x="0" width="26" y="0" height="26"/></clipPath><clipPath id="356c225158"><path d="M 155.035156 183.378906 L 161.785156 183.378906 L 161.785156 188 L 155.035156 188 Z M 155.035156 183.378906 " clip-rule="nonzero"/></clipPath><clipPath id="20a8240fda"><path d="M 155.035156 185 L 161.785156 185 L 161.785156 190.128906 L 155.035156 190.128906 Z M 155.035156 185 " clip-rule="nonzero"/></clipPath><clipPath id="97b6bd718b"><path d="M 25 2 L 27.800781 2 L 27.800781 5 L 25 5 Z M 25 2 " clip-rule="nonzero"/></clipPath><clipPath id="6d26b712c9"><rect x="0" width="28" y="0" height="7"/></clipPath></defs><rect x="-37.5" width="450" fill="#ffffff" y="-37.499999" height="449.999989" fill-opacity="1"/><rect x="-37.5" width="450" fill="#0b2e5c" y="-37.499999" height="449.999989" fill-opacity="1"/><g transform="matrix(1, 0, 0, 1, 145, 173)"><g clip-path="url(#7e5194ef03)"><g fill="#ffffff" fill-opacity="1"><g transform="translate(1.01666, 22.664015)"><g/></g></g><g fill="#ffffff" fill-opacity="1"><g transform="translate(6.8017, 22.664015)"><g/></g></g><g fill="#ffffff" fill-opacity="1"><g transform="translate(12.58674, 22.664015)"><g/></g></g><g fill="#ffffff" fill-opacity="1"><g transform="translate(18.371781, 22.664015)"><g/></g></g><g fill="#ffffff" fill-opacity="1"><g transform="translate(24.158052, 22.664015)"><g><path d="M 6.109375 0 L 2.25 0 L 2.25 -16.34375 L 5.921875 -16.34375 L 5.921875 -13.796875 C 6.234375 -14.390625 6.664062 -14.914062 7.21875 -15.375 C 7.769531 -15.832031 8.410156 -16.191406 9.140625 -16.453125 C 9.867188 -16.710938 10.65625 -16.84375 11.5 -16.84375 C 13.6875 -16.84375 15.328125 -16.144531 16.421875 -14.75 C 17.515625 -13.351562 18.0625 -11.375 18.0625 -8.8125 L 18.0625 0 L 14.21875 0 L 14.21875 -8.734375 C 14.21875 -10.347656 13.875 -11.507812 13.1875 -12.21875 C 12.507812 -12.9375 11.59375 -13.296875 10.4375 -13.296875 C 9.675781 -13.296875 8.96875 -13.101562 8.3125 -12.71875 C 7.65625 -12.332031 7.125 -11.773438 6.71875 -11.046875 C 6.3125 -10.316406 6.109375 -9.414062 6.109375 -8.34375 Z M 6.109375 0 "/></g></g></g><g fill="#ffffff" fill-opacity="1"><g transform="translate(42.203058, 22.664015)"><g><path d="M 17.8125 -8.453125 C 17.8125 -8.253906 17.804688 -8.0625 17.796875 -7.875 C 17.785156 -7.695312 17.765625 -7.457031 17.734375 -7.15625 L 4.953125 -7.15625 C 5.097656 -6.257812 5.382812 -5.5 5.8125 -4.875 C 6.238281 -4.25 6.769531 -3.769531 7.40625 -3.4375 C 8.039062 -3.101562 8.734375 -2.9375 9.484375 -2.9375 C 10.460938 -2.9375 11.253906 -3.128906 11.859375 -3.515625 C 12.460938 -3.910156 12.90625 -4.453125 13.1875 -5.140625 L 17.375 -5.140625 C 17.175781 -4.398438 16.84375 -3.691406 16.375 -3.015625 C 15.914062 -2.335938 15.351562 -1.734375 14.6875 -1.203125 C 14.019531 -0.679688 13.253906 -0.269531 12.390625 0.03125 C 11.523438 0.34375 10.585938 0.5 9.578125 0.5 C 8.347656 0.5 7.210938 0.273438 6.171875 -0.171875 C 5.140625 -0.628906 4.242188 -1.253906 3.484375 -2.046875 C 2.734375 -2.847656 2.144531 -3.769531 1.71875 -4.8125 C 1.300781 -5.863281 1.09375 -6.984375 1.09375 -8.171875 C 1.09375 -9.367188 1.300781 -10.488281 1.71875 -11.53125 C 2.144531 -12.570312 2.734375 -13.488281 3.484375 -14.28125 C 4.242188 -15.082031 5.140625 -15.707031 6.171875 -16.15625 C 7.210938 -16.613281 8.347656 -16.84375 9.578125 -16.84375 C 10.804688 -16.84375 11.925781 -16.617188 12.9375 -16.171875 C 13.945312 -15.722656 14.8125 -15.109375 15.53125 -14.328125 C 16.257812 -13.554688 16.820312 -12.664062 17.21875 -11.65625 C 17.613281 -10.644531 17.8125 -9.578125 17.8125 -8.453125 Z M 5.125 -10.125 L 13.875 -10.125 C 13.820312 -10.738281 13.59375 -11.296875 13.1875 -11.796875 C 12.789062 -12.304688 12.273438 -12.710938 11.640625 -13.015625 C 11.003906 -13.328125 10.3125 -13.484375 9.5625 -13.484375 C 8.90625 -13.484375 8.28125 -13.363281 7.6875 -13.125 C 7.101562 -12.882812 6.582031 -12.515625 6.125 -12.015625 C 5.675781 -11.523438 5.34375 -10.894531 5.125 -10.125 Z M 5.125 -10.125 "/></g></g></g><g fill="#ffffff" fill-opacity="1"><g transform="translate(58.737432, 22.664015)"><g><path d="M 6.53125 0 L 2.578125 0 L 2.578125 -21.625 L 6.53125 -21.625 L 6.53125 -12.65625 L 17.4375 -12.65625 L 17.4375 -21.625 L 21.421875 -21.625 L 21.421875 0 L 17.4375 0 L 17.4375 -9.125 L 6.53125 -9.125 Z M 6.53125 0 "/></g></g></g><g fill="#ffffff" fill-opacity="1"><g transform="translate(80.582868, 22.664015)"><g><path d="M 6.109375 0 L 2.25 0 L 2.25 -16.34375 L 5.953125 -16.34375 L 5.953125 -13.390625 C 6.328125 -14.285156 6.882812 -15 7.625 -15.53125 C 8.375 -16.070312 9.273438 -16.34375 10.328125 -16.34375 L 12.078125 -16.34375 L 12.078125 -13.03125 L 10.546875 -13.03125 C 9.660156 -13.03125 8.882812 -12.816406 8.21875 -12.390625 C 7.550781 -11.972656 7.03125 -11.359375 6.65625 -10.546875 C 6.289062 -9.742188 6.109375 -8.757812 6.109375 -7.59375 Z M 6.109375 0 "/></g></g></g></g></g><g transform="matrix(1, 0, 0, 1, 144, 174)"><g clip-path="url(#947cd8d589)"><g clip-path="url(#062762aed3)"><g clip-path="url(#809ebf9fbc)"><g><g clip-path="url(#70e24f5ef2)"><g clip-path="url(#77c368fcfe)"><g clip-path="url(#c2cafb8dd3)"><path fill="#ffd52d" d="M 0.964844 0.363281 L 25.84375 0.363281 L 25.84375 25.242188 L 0.964844 25.242188 Z M 0.964844 0.363281 " fill-opacity="1" fill-rule="nonzero"/></g></g></g></g></g></g><g clip-path="url(#5c70136ba9)"><g clip-path="url(#315649d744)"><g transform="matrix(1, 0, 0, 1, 3, 0)"><g clip-path="url(#0666250717)"><g clip-path="url(#671ac895ed)"><g clip-path="url(#ee83ca4773)"><path fill="#1db221" d="M -2.035156 0.363281 L 22.84375 0.363281 L 22.84375 25.242188 L -2.035156 25.242188 Z M -2.035156 0.363281 " fill-opacity="1" fill-rule="nonzero"/></g></g></g></g></g></g></g></g><g clip-path="url(#356c225158)"><path fill="#1db221" d="M 155.070312 187.257812 L 156.441406 185.863281 C 156.5625 185.738281 156.753906 185.730469 156.890625 185.851562 L 157.351562 186.257812 L 158.476562 185.109375 C 158.597656 184.988281 158.800781 184.976562 158.925781 185.089844 L 159.394531 185.503906 L 160.484375 184.367188 L 160.09375 183.976562 C 160.035156 183.929688 160.023438 183.863281 160.046875 183.796875 C 160.070312 183.730469 160.117188 183.683594 160.183594 183.671875 L 161.65625 183.390625 C 161.710938 183.378906 161.765625 183.402344 161.8125 183.449219 C 161.855469 183.492188 161.867188 183.550781 161.855469 183.605469 L 161.585938 185.078125 C 161.574219 185.144531 161.53125 185.1875 161.464844 185.210938 C 161.394531 185.234375 161.328125 185.210938 161.285156 185.167969 L 160.945312 184.828125 L 159.65625 186.167969 C 159.53125 186.300781 159.328125 186.3125 159.195312 186.199219 L 158.722656 185.785156 L 157.609375 186.917969 L 157.609375 186.929688 C 157.496094 187.066406 157.285156 187.078125 157.148438 186.953125 L 156.6875 186.539062 L 155.542969 187.71875 C 155.484375 187.761719 155.40625 187.761719 155.351562 187.71875 L 155.082031 187.449219 C 155.046875 187.425781 155.035156 187.390625 155.035156 187.359375 C 155.035156 187.324219 155.046875 187.289062 155.070312 187.257812 Z M 155.070312 187.257812 " fill-opacity="1" fill-rule="nonzero"/></g><g clip-path="url(#20a8240fda)"><path fill="#ffd52d" d="M 156.632812 187.550781 L 156.632812 190.019531 C 156.632812 190.132812 156.542969 190.222656 156.429688 190.222656 L 155.722656 190.222656 C 155.621094 190.222656 155.53125 190.132812 155.53125 190.019531 L 155.53125 188.46875 C 155.53125 188.4375 155.542969 188.414062 155.554688 188.390625 L 156.441406 187.480469 C 156.472656 187.449219 156.519531 187.4375 156.5625 187.449219 C 156.597656 187.46875 156.632812 187.503906 156.632812 187.550781 Z M 161.09375 185.695312 L 161.09375 190.019531 C 161.09375 190.132812 161.003906 190.222656 160.890625 190.222656 L 160.183594 190.222656 C 160.082031 190.222656 159.992188 190.132812 159.992188 190.019531 L 159.992188 186.59375 C 159.992188 186.558594 160.003906 186.539062 160.015625 186.515625 L 160.902344 185.628906 C 160.9375 185.59375 160.980469 185.582031 161.027344 185.59375 C 161.058594 185.617188 161.09375 185.648438 161.09375 185.695312 Z M 159.597656 186.839844 L 159.597656 190.019531 C 159.597656 190.132812 159.507812 190.222656 159.40625 190.222656 L 158.699219 190.222656 C 158.585938 190.222656 158.496094 190.132812 158.496094 190.019531 L 158.496094 186.738281 C 158.496094 186.707031 158.496094 186.660156 158.554688 186.59375 L 158.675781 186.460938 C 158.710938 186.414062 158.765625 186.402344 158.8125 186.4375 L 159.183594 186.660156 C 159.296875 186.730469 159.351562 186.761719 159.476562 186.738281 C 159.507812 186.738281 159.542969 186.738281 159.566406 186.761719 C 159.585938 186.785156 159.597656 186.808594 159.597656 186.839844 Z M 158.113281 187.234375 L 158.113281 190.019531 C 158.113281 190.132812 158.023438 190.222656 157.914062 190.222656 L 157.214844 190.222656 C 157.105469 190.222656 157.015625 190.132812 157.015625 190.019531 L 157.015625 187.570312 C 157.015625 187.46875 157.113281 187.460938 157.195312 187.492188 C 157.203125 187.492188 157.203125 187.492188 157.214844 187.492188 C 157.453125 187.558594 157.574219 187.492188 157.699219 187.371094 L 157.933594 187.15625 C 157.96875 187.121094 158.015625 187.109375 158.046875 187.132812 C 158.09375 187.15625 158.113281 187.191406 158.113281 187.234375 Z M 158.113281 187.234375 " fill-opacity="1" fill-rule="evenodd"/></g><g transform="matrix(1, 0, 0, 1, 205, 200)"><g clip-path="url(#6d26b712c9)"><g fill="#ffffff" fill-opacity="1"><g transform="translate(0.745315, 4.813863)"><g><path d="M 2.59375 -3.5 C 2.757812 -3.445312 2.898438 -3.34375 3.015625 -3.1875 C 3.128906 -3.039062 3.1875 -2.875 3.1875 -2.6875 C 3.1875 -2.488281 3.132812 -2.320312 3.03125 -2.1875 C 2.925781 -2.050781 2.8125 -1.957031 2.6875 -1.90625 C 2.925781 -1.832031 3.097656 -1.710938 3.203125 -1.546875 C 3.304688 -1.390625 3.359375 -1.222656 3.359375 -1.046875 C 3.359375 -0.835938 3.296875 -0.640625 3.171875 -0.453125 C 3.054688 -0.265625 2.898438 -0.140625 2.703125 -0.078125 C 2.609375 -0.046875 2.492188 -0.0234375 2.359375 -0.015625 C 2.222656 -0.00390625 2.054688 0 1.859375 0 L 0.359375 0 L 0.359375 -3.578125 L 1.859375 -3.578125 C 2.035156 -3.578125 2.179688 -3.570312 2.296875 -3.5625 C 2.410156 -3.550781 2.507812 -3.53125 2.59375 -3.5 Z M 2.484375 -2.5625 C 2.484375 -2.65625 2.457031 -2.734375 2.40625 -2.796875 C 2.363281 -2.859375 2.3125 -2.90625 2.25 -2.9375 C 2.1875 -2.957031 2.0625 -2.96875 1.875 -2.96875 L 1.078125 -2.96875 L 1.078125 -2.15625 L 1.890625 -2.15625 C 2.285156 -2.15625 2.484375 -2.289062 2.484375 -2.5625 Z M 2.234375 -0.625 C 2.347656 -0.644531 2.441406 -0.691406 2.515625 -0.765625 C 2.585938 -0.835938 2.625 -0.9375 2.625 -1.0625 C 2.625 -1.195312 2.585938 -1.300781 2.515625 -1.375 C 2.441406 -1.445312 2.347656 -1.492188 2.234375 -1.515625 C 2.117188 -1.535156 1.960938 -1.546875 1.765625 -1.546875 L 1.078125 -1.546875 L 1.078125 -0.609375 L 1.828125 -0.609375 C 2.003906 -0.609375 2.140625 -0.613281 2.234375 -0.625 Z M 2.234375 -0.625 "/></g></g></g><g fill="#ffffff" fill-opacity="1"><g transform="translate(4.355381, 4.813863)"><g><path d="M 1.375 -0.75 L 1.390625 -0.75 L 1.984375 -2.59375 L 2.703125 -2.59375 L 1.78125 -0.09375 L 1.71875 0.078125 C 1.632812 0.316406 1.554688 0.5 1.484375 0.625 C 1.421875 0.75 1.320312 0.847656 1.1875 0.921875 C 1.0625 1.003906 0.882812 1.046875 0.65625 1.046875 C 0.507812 1.046875 0.378906 1.035156 0.265625 1.015625 L 0.203125 0.46875 C 0.316406 0.488281 0.410156 0.5 0.484375 0.5 C 0.628906 0.5 0.738281 0.460938 0.8125 0.390625 C 0.894531 0.316406 0.960938 0.1875 1.015625 0 L 0.03125 -2.59375 L 0.765625 -2.59375 Z M 1.375 -0.75 "/></g></g></g><g fill="#ffffff" fill-opacity="1"><g transform="translate(7.135429, 4.813863)"><g/></g></g><g fill="#ffffff" fill-opacity="1"><g transform="translate(8.525457, 4.813863)"><g><path d="M 1.171875 -0.890625 L 1.1875 -0.890625 L 1.625 -2.59375 L 2.28125 -2.59375 L 2.703125 -0.890625 L 2.71875 -0.890625 L 3.203125 -2.59375 L 3.890625 -2.59375 L 3.0625 0 L 2.390625 0 L 1.953125 -1.671875 L 1.9375 -1.671875 L 1.515625 0 L 0.84375 0 L 0.015625 -2.59375 L 0.6875 -2.59375 Z M 1.171875 -0.890625 "/></g></g></g><g fill="#ffffff" fill-opacity="1"><g transform="translate(12.330526, 4.813863)"><g><path d="M 1.34375 -2.65625 C 1.757812 -2.65625 2.066406 -2.519531 2.265625 -2.25 C 2.472656 -1.976562 2.578125 -1.59375 2.578125 -1.09375 L 0.859375 -1.09375 C 0.867188 -0.925781 0.921875 -0.78125 1.015625 -0.65625 C 1.109375 -0.53125 1.242188 -0.46875 1.421875 -0.46875 C 1.535156 -0.46875 1.628906 -0.492188 1.703125 -0.546875 C 1.773438 -0.609375 1.828125 -0.703125 1.859375 -0.828125 L 2.546875 -0.703125 C 2.460938 -0.453125 2.320312 -0.257812 2.125 -0.125 C 1.925781 0 1.691406 0.0625 1.421875 0.0625 C 1.003906 0.0625 0.6875 -0.0625 0.46875 -0.3125 C 0.363281 -0.425781 0.285156 -0.570312 0.234375 -0.75 C 0.179688 -0.925781 0.15625 -1.101562 0.15625 -1.28125 C 0.15625 -1.519531 0.195312 -1.742188 0.28125 -1.953125 C 0.375 -2.160156 0.507812 -2.328125 0.6875 -2.453125 C 0.863281 -2.585938 1.082031 -2.65625 1.34375 -2.65625 Z M 0.875 -1.515625 L 1.90625 -1.515625 C 1.894531 -1.722656 1.835938 -1.875 1.734375 -1.96875 C 1.640625 -2.070312 1.523438 -2.125 1.390625 -2.125 C 1.222656 -2.125 1.09375 -2.066406 1 -1.953125 C 0.914062 -1.835938 0.875 -1.691406 0.875 -1.515625 Z M 0.875 -1.515625 "/></g></g></g><g fill="#ffffff" fill-opacity="1"><g transform="translate(15.110574, 4.813863)"><g><path d="M 1.3125 -2.65625 C 1.632812 -2.65625 1.882812 -2.597656 2.0625 -2.484375 C 2.25 -2.378906 2.378906 -2.207031 2.453125 -1.96875 L 1.796875 -1.84375 C 1.765625 -1.945312 1.707031 -2.023438 1.625 -2.078125 C 1.550781 -2.128906 1.445312 -2.15625 1.3125 -2.15625 C 1 -2.15625 0.84375 -2.082031 0.84375 -1.9375 C 0.84375 -1.875 0.894531 -1.820312 1 -1.78125 C 1.101562 -1.738281 1.25 -1.695312 1.4375 -1.65625 C 1.675781 -1.59375 1.867188 -1.535156 2.015625 -1.484375 C 2.171875 -1.429688 2.296875 -1.347656 2.390625 -1.234375 C 2.484375 -1.128906 2.53125 -0.988281 2.53125 -0.8125 C 2.53125 -0.664062 2.488281 -0.523438 2.40625 -0.390625 C 2.332031 -0.253906 2.207031 -0.144531 2.03125 -0.0625 C 1.851562 0.0195312 1.628906 0.0625 1.359375 0.0625 C 1.054688 0.0625 0.785156 0 0.546875 -0.125 C 0.316406 -0.257812 0.171875 -0.460938 0.109375 -0.734375 L 0.796875 -0.84375 C 0.859375 -0.570312 1.046875 -0.4375 1.359375 -0.4375 C 1.472656 -0.4375 1.582031 -0.457031 1.6875 -0.5 C 1.789062 -0.539062 1.84375 -0.613281 1.84375 -0.71875 C 1.84375 -0.78125 1.816406 -0.828125 1.765625 -0.859375 C 1.722656 -0.890625 1.648438 -0.914062 1.546875 -0.9375 C 1.222656 -1.007812 0.972656 -1.070312 0.796875 -1.125 C 0.628906 -1.1875 0.488281 -1.273438 0.375 -1.390625 C 0.257812 -1.503906 0.203125 -1.660156 0.203125 -1.859375 C 0.203125 -2.128906 0.304688 -2.328125 0.515625 -2.453125 C 0.722656 -2.585938 0.988281 -2.65625 1.3125 -2.65625 Z M 1.3125 -2.65625 "/></g></g></g><g fill="#ffffff" fill-opacity="1"><g transform="translate(17.890623, 4.813863)"><g><path d="M 1.53125 -2.65625 C 1.8125 -2.65625 2.050781 -2.585938 2.25 -2.453125 C 2.457031 -2.328125 2.613281 -2.160156 2.71875 -1.953125 C 2.820312 -1.753906 2.875 -1.539062 2.875 -1.3125 C 2.875 -1.0625 2.816406 -0.832031 2.703125 -0.625 C 2.597656 -0.414062 2.441406 -0.25 2.234375 -0.125 C 2.035156 0 1.804688 0.0625 1.546875 0.0625 C 1.304688 0.0625 1.082031 0.015625 0.875 -0.078125 C 0.675781 -0.171875 0.515625 -0.320312 0.390625 -0.53125 C 0.265625 -0.738281 0.203125 -1.003906 0.203125 -1.328125 C 0.203125 -1.554688 0.25 -1.769531 0.34375 -1.96875 C 0.445312 -2.164062 0.597656 -2.328125 0.796875 -2.453125 C 1.003906 -2.585938 1.25 -2.65625 1.53125 -2.65625 Z M 0.90625 -1.296875 C 0.90625 -1.035156 0.960938 -0.835938 1.078125 -0.703125 C 1.203125 -0.566406 1.351562 -0.5 1.53125 -0.5 C 1.707031 -0.5 1.859375 -0.566406 1.984375 -0.703125 C 2.109375 -0.835938 2.171875 -1.035156 2.171875 -1.296875 C 2.171875 -1.546875 2.109375 -1.738281 1.984375 -1.875 C 1.867188 -2.019531 1.71875 -2.09375 1.53125 -2.09375 C 1.351562 -2.09375 1.203125 -2.023438 1.078125 -1.890625 C 0.960938 -1.753906 0.90625 -1.554688 0.90625 -1.296875 Z M 0.90625 -1.296875 "/></g></g></g><g fill="#ffffff" fill-opacity="1"><g transform="translate(20.945676, 4.813863)"><g><path d="M 1.046875 0 L 0.359375 0 L 0.359375 -3.578125 L 1.046875 -3.578125 Z M 1.046875 0 "/></g></g></g><g fill="#ffffff" fill-opacity="1"><g transform="translate(22.335703, 4.813863)"><g><path d="M 1.234375 -1.28125 L 1.328125 -0.984375 C 1.347656 -0.910156 1.363281 -0.859375 1.375 -0.828125 C 1.425781 -1.015625 1.472656 -1.160156 1.515625 -1.265625 L 2.015625 -2.59375 L 2.71875 -2.59375 L 1.6875 0 L 1.0625 0 L 0.03125 -2.59375 L 0.75 -2.59375 Z M 1.234375 -1.28125 "/></g></g></g><g clip-path="url(#97b6bd718b)"><g fill="#ffffff" fill-opacity="1"><g transform="translate(25.115752, 4.813863)"><g><path d="M 1.5625 -2.65625 C 1.632812 -2.65625 1.710938 -2.640625 1.796875 -2.609375 C 1.878906 -2.585938 1.953125 -2.5625 2.015625 -2.53125 L 1.796875 -1.921875 C 1.679688 -1.992188 1.570312 -2.03125 1.46875 -2.03125 C 1.34375 -2.03125 1.242188 -1.984375 1.171875 -1.890625 C 1.109375 -1.804688 1.066406 -1.6875 1.046875 -1.53125 C 1.023438 -1.375 1.015625 -1.164062 1.015625 -0.90625 L 1.015625 0 L 0.328125 0 L 0.328125 -2.59375 L 0.96875 -2.59375 L 0.96875 -2.21875 C 1.050781 -2.363281 1.132812 -2.472656 1.21875 -2.546875 C 1.300781 -2.617188 1.414062 -2.65625 1.5625 -2.65625 Z M 1.5625 -2.65625 "/></g></g></g></g></g></g></svg>